   <svg xml:space="preserve" viewBox="0 0 100 100" y="0" x="0" xmlns="http://www.w3.org/2000/svg" id="圖層_1" version="1.1" style="margin: initial; display: block; shape-rendering: auto;" preserveAspectRatio="xMidYMid" width="200" height="200"><g class="ldl-scale" style="transform-origin: 50% 50%; transform: rotate(0deg) scale(0.8, 0.8);"><g class="ldl-ani"><g class="ldl-layer"><g class="ldl-ani" style="opacity: 1; transform-origin: 50px 50px; transform: matrix3d(0.91, 0, 0, 0, 0, 0.91, 0, 0, 0, 0, 0.91, 0, 0, 0, 0, 1); animation: 1s linear -0.625s infinite normal forwards running animate; transform-box: view-box;"><path fill="#f5e169" d="M57.7 35.7l-8.3-.6c-6.5-.5-11.6-5.6-12-12.1l-.6-9.6c0-.6-.5-1.1-1.1-1.1h-.3c-.6 0-1.1.5-1.1 1.1l-.6 9.6c-.4 6.5-5.5 11.6-12 12.1l-8.3.6c-.5 0-1 .4-1.1.9-.1.7.4 1.3 1 1.3l8.4.6c6.5.5 11.6 5.6 12 12.1l.6 9.6c0 .6.5 1.1 1.1 1.1h.3c.6 0 1.1-.5 1.1-1.1l.6-9.6c.4-6.5 5.5-11.6 12-12.1l8.4-.6c.7 0 1.1-.6 1-1.3-.1-.5-.6-.9-1.1-.9z" style="stroke-width: 1; fill: rgb(255, 255, 255);"></path></g></g><g class="ldl-layer"><g class="ldl-ani" style="opacity: 1; transform-origin: 50px 50px; transform: matrix3d(0.91, 0, 0, 0, 0, 0.91, 0, 0, 0, 0, 0.91, 0, 0, 0, 0, 1); animation: 1s linear -0.75s infinite normal forwards running animate; transform-box: view-box;"><path fill="#f5e169" d="M65.2 74.9l-4.2-.3c-3.2-.2-5.8-2.8-6-6l-.3-4.8c0-.3-.3-.5-.6-.5H54c-.3 0-.5.2-.6.5l-.3 4.8c-.2 3.2-2.8 5.8-6 6l-4.2.3c-.3 0-.5.2-.5.5.1.3.3.6.6.6l4.2.3c3.2.2 5.8 2.8 6 6l.3 4.8c0 .3.3.5.6.5h.1c.3 0 .5-.2.6-.5l.3-4.8c.2-3.2 2.8-5.8 6-6l4.2-.3c.3 0 .6-.3.5-.7-.1-.2-.3-.4-.6-.4z" style="stroke-width: 1; fill: rgb(255, 255, 255);"></path></g></g><g class="ldl-layer"><g class="ldl-ani" style="opacity: 1; transform-origin: 50px 50px; transform: matrix3d(0.91, 0, 0, 0, 0, 0.91, 0, 0, 0, 0, 0.91, 0, 0, 0, 0, 1); animation: 1s linear -0.875s infinite normal forwards running animate; transform-box: view-box;"><path fill="#f5e169" d="M91.6 50.3l-6.5-.5c-5-.4-8.9-4.5-9.3-9.6l-.5-7.7c0-.5-.4-.8-.9-.8h-.2c-.5 0-.8.4-.9.8l-.5 7.7c-.3 5.1-4.3 9.3-9.3 9.6l-6.5.5c-.4 0-.8.3-.8.7-.1.5.3 1 .8 1.1l6.5.5c5 .4 8.9 4.5 9.3 9.6l.5 7.7c0 .5.4.8.9.8h.2c.5 0 .8-.4.9-.8l.5-7.7c.3-5.1 4.3-9.3 9.3-9.6l6.5-.5c.5 0 .9-.5.8-1.1 0-.3-.3-.6-.8-.7z" style="stroke-width: 1; fill: rgb(255, 255, 255);"></path></g></g><g class="ldl-layer"><g class="ldl-ani" style="opacity: 1; transform-origin: 50px 50px; transform: matrix3d(0.91, 0, 0, 0, 0, 0.91, 0, 0, 0, 0, 0.91, 0, 0, 0, 0, 1); animation: 1s linear -1s infinite normal forwards running animate; transform-box: view-box;"><path fill="#f5e169" d="M28.2 70.2l-3.8-.3c-2.9-.2-5.3-2.6-5.5-5.5l-.3-4.4c0-.3-.2-.5-.5-.5H18c-.3 0-.5.2-.5.5l-.3 4.4c-.2 2.9-2.5 5.3-5.5 5.5l-3.7.3c-.2 0-.5.2-.5.4 0 .4.2.6.5.6l3.8.3c2.9.2 5.3 2.6 5.5 5.5l.3 4.4c0 .3.2.5.5.5h.1c.3 0 .5-.2.5-.5L19 77c.2-2.9 2.5-5.3 5.5-5.5l3.8-.3c.3 0 .5-.3.5-.6-.2-.2-.4-.4-.6-.4z" style="stroke-width: 1; fill: rgb(255, 255, 255);"></path></g></g><metadata xmlns:d="https://loading.io/stock/"></metadata></g></g></svg>
  